<svg width="300" height="61" viewBox="0 0 300 61" fill="none" xmlns="http://www.w3.org/2000/svg">
<path d="M0.63997 39.11H24.96V34.23H19.24L18.56 34.83H8.55997L15.16 25.39V36.79L14.68 37.23V44.27H20.56V16.27H16.68L0.63997 39.11ZM29.5243 41.91C29.5243 42.7634 29.831 43.51 30.4443 44.15C31.0843 44.79 31.871 45.11 32.8043 45.11C33.7643 45.11 34.551 44.79 35.1643 44.15C35.7777 43.51 36.0843 42.7634 36.0843 41.91C36.0843 41.0034 35.7777 40.2434 35.1643 39.63C34.551 38.99 33.7643 38.67 32.8043 38.67C31.871 38.67 31.0843 38.99 30.4443 39.63C29.831 40.2434 29.5243 41.0034 29.5243 41.91ZM57.1015 25.91C57.1015 26.95 56.8749 27.87 56.4215 28.67C55.9682 29.47 55.3415 30.0967 54.5415 30.55C53.7682 31.0034 52.8882 31.23 51.9015 31.23C50.9149 31.23 50.0215 31.0034 49.2215 30.55C48.4482 30.0967 47.8349 29.47 47.3815 28.67C46.9282 27.87 46.7015 26.95 46.7015 25.91C46.7015 24.8434 46.9282 23.9234 47.3815 23.15C47.8349 22.35 48.4482 21.7367 49.2215 21.31C50.0215 20.8567 50.9149 20.63 51.9015 20.63C52.8882 20.63 53.7682 20.8567 54.5415 21.31C55.3415 21.7367 55.9682 22.35 56.4215 23.15C56.8749 23.9234 57.1015 24.8434 57.1015 25.91ZM51.4215 44.19L59.9415 33.07C60.7149 32.0567 61.3682 30.9634 61.9015 29.79C62.4349 28.59 62.7015 27.2967 62.7015 25.91C62.7015 23.7234 62.2082 21.87 61.2215 20.35C60.2615 18.83 58.9682 17.6834 57.3415 16.91C55.7149 16.11 53.9015 15.71 51.9015 15.71C49.9015 15.71 48.0882 16.11 46.4615 16.91C44.8349 17.6834 43.5282 18.83 42.5415 20.35C41.5815 21.87 41.1015 23.7234 41.1015 25.91C41.1015 27.27 41.3415 28.51 41.8215 29.63C42.3015 30.75 42.9415 31.71 43.7415 32.51C44.5682 33.31 45.4882 33.9234 46.5015 34.35C47.5149 34.7767 48.5549 34.99 49.6215 34.99C50.6082 34.99 51.4482 34.8834 52.1415 34.67C52.8349 34.43 53.5149 33.9634 54.1815 33.27L53.1815 33.63L44.1815 44.19H51.4215Z" fill="#1B1B1D"/>
<path d="M110.947 9.44902C110.818 9.07102 110.477 8.80402 110.079 8.77302L104.378 8.32002L101.911 2.85902C101.75 2.50002 101.393 2.27002 101 2.27002C100.607 2.27002 100.25 2.50002 100.089 2.85802L97.622 8.32002L91.921 8.77302C91.53 8.80402 91.193 9.06102 91.06 9.43002C90.927 9.79902 91.021 10.212 91.302 10.486L95.515 14.593L94.025 21.045C93.933 21.444 94.094 21.859 94.431 22.092C94.603 22.21 94.801 22.27 95 22.27C95.193 22.27 95.387 22.214 95.555 22.102L101 18.472L106.445 22.102C106.793 22.334 107.25 22.325 107.59 22.078C107.928 21.831 108.077 21.398 107.962 20.996L106.133 14.596L110.669 10.514C110.966 10.246 111.075 9.82802 110.947 9.44902Z" fill="#FFB700"/>
<path d="M134.947 9.44902C134.818 9.07102 134.477 8.80402 134.079 8.77302L128.378 8.32002L125.911 2.85902C125.75 2.50002 125.393 2.27002 125 2.27002C124.607 2.27002 124.25 2.50002 124.089 2.85802L121.622 8.32002L115.921 8.77302C115.53 8.80402 115.193 9.06102 115.06 9.43002C114.927 9.79902 115.021 10.212 115.302 10.486L119.515 14.593L118.025 21.045C117.933 21.444 118.094 21.859 118.431 22.092C118.603 22.21 118.801 22.27 119 22.27C119.193 22.27 119.387 22.214 119.555 22.102L125 18.472L130.445 22.102C130.793 22.334 131.25 22.325 131.59 22.078C131.928 21.831 132.077 21.398 131.962 20.996L130.133 14.596L134.669 10.514C134.966 10.246 135.075 9.82802 134.947 9.44902Z" fill="#FFB700"/>
<path d="M158.947 9.44902C158.818 9.07102 158.477 8.80402 158.079 8.77302L152.378 8.32002L149.911 2.85902C149.75 2.50002 149.393 2.27002 149 2.27002C148.607 2.27002 148.25 2.50002 148.089 2.85802L145.622 8.32002L139.921 8.77302C139.53 8.80402 139.193 9.06102 139.06 9.43002C138.927 9.79902 139.021 10.212 139.302 10.486L143.515 14.593L142.025 21.045C141.933 21.444 142.094 21.859 142.431 22.092C142.603 22.21 142.801 22.27 143 22.27C143.193 22.27 143.387 22.214 143.555 22.102L149 18.472L154.445 22.102C154.793 22.334 155.25 22.325 155.59 22.078C155.928 21.831 156.077 21.398 155.962 20.996L154.133 14.596L158.669 10.514C158.966 10.246 159.075 9.82802 158.947 9.44902Z" fill="#FFB700"/>
<path d="M182.947 9.44902C182.818 9.07102 182.477 8.80402 182.079 8.77302L176.378 8.32002L173.911 2.85902C173.75 2.50002 173.393 2.27002 173 2.27002C172.607 2.27002 172.25 2.50002 172.089 2.85802L169.622 8.32002L163.921 8.77302C163.53 8.80402 163.193 9.06102 163.06 9.43002C162.927 9.79902 163.021 10.212 163.302 10.486L167.515 14.593L166.025 21.045C165.933 21.444 166.094 21.859 166.431 22.092C166.603 22.21 166.801 22.27 167 22.27C167.193 22.27 167.387 22.214 167.555 22.102L173 18.472L178.445 22.102C178.793 22.334 179.25 22.325 179.59 22.078C179.928 21.831 180.077 21.398 179.962 20.996L178.133 14.596L182.669 10.514C182.966 10.246 183.075 9.82802 182.947 9.44902Z" fill="#FFB700"/>
<path d="M206.947 9.44902C206.818 9.07102 206.477 8.80402 206.079 8.77302L200.378 8.32002L197.911 2.85902C197.75 2.50002 197.393 2.27002 197 2.27002C196.607 2.27002 196.25 2.50002 196.089 2.85802L193.622 8.32002L187.921 8.77302C187.53 8.80402 187.193 9.06102 187.06 9.43002C186.927 9.79902 187.021 10.212 187.302 10.486L191.515 14.593L190.025 21.045C189.933 21.444 190.094 21.859 190.431 22.092C190.603 22.21 190.801 22.27 191 22.27C191.193 22.27 191.387 22.214 191.555 22.102L197 18.472L202.445 22.102C202.793 22.334 203.25 22.325 203.59 22.078C203.928 21.831 204.077 21.398 203.962 20.996L202.133 14.596L206.669 10.514C206.966 10.246 207.075 9.82802 206.947 9.44902Z" fill="#FFB700"/>
<path d="M92 37.67H90.4V53.27H92V37.67ZM99.7 48.67C99.7 47.67 99.4933 46.8167 99.08 46.11C98.6666 45.39 98.1133 44.8367 97.42 44.45C96.74 44.0634 95.98 43.87 95.14 43.87C94.38 43.87 93.7066 44.0634 93.12 44.45C92.5466 44.8367 92.0933 45.39 91.76 46.11C91.44 46.8167 91.28 47.67 91.28 48.67C91.28 49.6567 91.44 50.51 91.76 51.23C92.0933 51.95 92.5466 52.5034 93.12 52.89C93.7066 53.2767 94.38 53.47 95.14 53.47C95.98 53.47 96.74 53.2767 97.42 52.89C98.1133 52.5034 98.6666 51.95 99.08 51.23C99.4933 50.51 99.7 49.6567 99.7 48.67ZM98.08 48.67C98.08 49.3767 97.9333 49.9767 97.64 50.47C97.36 50.9634 96.98 51.3367 96.5 51.59C96.0333 51.8434 95.5133 51.97 94.94 51.97C94.4733 51.97 94.0133 51.8434 93.56 51.59C93.1066 51.3367 92.7333 50.9634 92.44 50.47C92.1466 49.9767 92 49.3767 92 48.67C92 47.9634 92.1466 47.3634 92.44 46.87C92.7333 46.3767 93.1066 46.0034 93.56 45.75C94.0133 45.4967 94.4733 45.37 94.94 45.37C95.5133 45.37 96.0333 45.4967 96.5 45.75C96.98 46.0034 97.36 46.3767 97.64 46.87C97.9333 47.3634 98.08 47.9634 98.08 48.67ZM102.626 50.43C102.626 50.0967 102.706 49.81 102.866 49.57C103.026 49.33 103.266 49.1434 103.586 49.01C103.92 48.8767 104.346 48.81 104.866 48.81C105.426 48.81 105.953 48.8834 106.446 49.03C106.94 49.1634 107.42 49.39 107.886 49.71V48.77C107.793 48.65 107.613 48.4967 107.346 48.31C107.08 48.11 106.72 47.9367 106.266 47.79C105.826 47.63 105.273 47.55 104.606 47.55C103.473 47.55 102.586 47.8234 101.946 48.37C101.32 48.9034 101.006 49.6167 101.006 50.51C101.006 51.1367 101.153 51.67 101.446 52.11C101.74 52.55 102.126 52.89 102.606 53.13C103.1 53.3567 103.626 53.47 104.186 53.47C104.693 53.47 105.2 53.3767 105.706 53.19C106.226 53.0034 106.66 52.7167 107.006 52.33C107.366 51.9434 107.546 51.4567 107.546 50.87L107.226 49.67C107.226 50.15 107.106 50.5767 106.866 50.95C106.64 51.31 106.326 51.59 105.926 51.79C105.54 51.99 105.1 52.09 104.606 52.09C104.22 52.09 103.873 52.03 103.566 51.91C103.273 51.7767 103.04 51.5834 102.866 51.33C102.706 51.0767 102.626 50.7767 102.626 50.43ZM102.386 46.19C102.533 46.0834 102.733 45.9567 102.986 45.81C103.24 45.6634 103.546 45.5367 103.906 45.43C104.28 45.3234 104.693 45.27 105.146 45.27C105.426 45.27 105.693 45.2967 105.946 45.35C106.2 45.4034 106.42 45.49 106.606 45.61C106.806 45.73 106.96 45.8967 107.066 46.11C107.173 46.31 107.226 46.57 107.226 46.89V53.27H108.826V46.67C108.826 46.07 108.673 45.5634 108.366 45.15C108.073 44.7367 107.653 44.4234 107.106 44.21C106.573 43.9834 105.946 43.87 105.226 43.87C104.373 43.87 103.64 43.9967 103.026 44.25C102.426 44.5034 101.953 44.7567 101.606 45.01L102.386 46.19ZM111.915 50.45L110.655 51.23C110.828 51.59 111.082 51.9434 111.415 52.29C111.762 52.6367 112.182 52.9234 112.675 53.15C113.168 53.3634 113.722 53.47 114.335 53.47C115.282 53.47 116.042 53.2034 116.615 52.67C117.202 52.1367 117.495 51.47 117.495 50.67C117.495 50.1234 117.362 49.6767 117.095 49.33C116.842 48.9834 116.495 48.69 116.055 48.45C115.615 48.1967 115.128 47.9634 114.595 47.75C114.275 47.6167 113.968 47.4767 113.675 47.33C113.382 47.1834 113.142 47.0167 112.955 46.83C112.768 46.6434 112.675 46.43 112.675 46.19C112.675 45.8834 112.795 45.6567 113.035 45.51C113.275 45.3634 113.562 45.29 113.895 45.29C114.375 45.29 114.802 45.4034 115.175 45.63C115.562 45.8567 115.882 46.1434 116.135 46.49L117.415 45.67C117.228 45.3234 116.968 45.0167 116.635 44.75C116.302 44.4834 115.915 44.27 115.475 44.11C115.048 43.95 114.588 43.87 114.095 43.87C113.602 43.87 113.122 43.9567 112.655 44.13C112.202 44.3034 111.828 44.57 111.535 44.93C111.255 45.29 111.115 45.7434 111.115 46.29C111.115 46.8234 111.248 47.27 111.515 47.63C111.795 47.9767 112.135 48.2634 112.535 48.49C112.948 48.7034 113.355 48.89 113.755 49.05C114.115 49.1834 114.455 49.33 114.775 49.49C115.095 49.6367 115.355 49.8234 115.555 50.05C115.768 50.2634 115.875 50.53 115.875 50.85C115.875 51.21 115.742 51.4967 115.475 51.71C115.222 51.91 114.868 52.01 114.415 52.01C114.042 52.01 113.695 51.9434 113.375 51.81C113.068 51.6634 112.795 51.47 112.555 51.23C112.315 50.99 112.102 50.73 111.915 50.45ZM123.162 53.47C124.148 53.47 125.002 53.2767 125.722 52.89C126.455 52.49 127.062 51.9034 127.542 51.13L126.242 50.31C125.908 50.87 125.502 51.29 125.022 51.57C124.542 51.8367 123.988 51.97 123.362 51.97C122.735 51.97 122.202 51.8367 121.762 51.57C121.322 51.3034 120.988 50.9167 120.762 50.41C120.535 49.9034 120.422 49.29 120.422 48.57C120.435 47.8634 120.555 47.27 120.782 46.79C121.022 46.2967 121.355 45.9234 121.782 45.67C122.222 45.4034 122.748 45.27 123.362 45.27C123.882 45.27 124.335 45.3834 124.722 45.61C125.108 45.8367 125.408 46.15 125.622 46.55C125.848 46.95 125.962 47.4234 125.962 47.97C125.962 48.0634 125.942 48.1834 125.902 48.33C125.862 48.4634 125.822 48.5634 125.782 48.63L126.422 47.71H119.822V49.07H127.682C127.682 49.0434 127.682 48.9834 127.682 48.89C127.695 48.7834 127.702 48.6834 127.702 48.59C127.702 47.6167 127.528 46.7767 127.182 46.07C126.835 45.3634 126.335 44.8234 125.682 44.45C125.042 44.0634 124.268 43.87 123.362 43.87C122.455 43.87 121.655 44.07 120.962 44.47C120.282 44.87 119.748 45.43 119.362 46.15C118.988 46.87 118.802 47.71 118.802 48.67C118.802 49.6167 118.982 50.45 119.342 51.17C119.715 51.89 120.228 52.4567 120.882 52.87C121.548 53.27 122.308 53.47 123.162 53.47ZM136.795 37.67V53.27H138.395V37.67H136.795ZM129.095 48.67C129.095 49.6567 129.301 50.51 129.715 51.23C130.128 51.95 130.681 52.5034 131.375 52.89C132.068 53.2767 132.828 53.47 133.655 53.47C134.428 53.47 135.101 53.2767 135.675 52.89C136.248 52.5034 136.695 51.95 137.015 51.23C137.348 50.51 137.515 49.6567 137.515 48.67C137.515 47.67 137.348 46.8167 137.015 46.11C136.695 45.39 136.248 44.8367 135.675 44.45C135.101 44.0634 134.428 43.87 133.655 43.87C132.828 43.87 132.068 44.0634 131.375 44.45C130.681 44.8367 130.128 45.39 129.715 46.11C129.301 46.8167 129.095 47.67 129.095 48.67ZM130.715 48.67C130.715 47.9634 130.855 47.3634 131.135 46.87C131.428 46.3767 131.815 46.0034 132.295 45.75C132.775 45.4967 133.295 45.37 133.855 45.37C134.321 45.37 134.781 45.4967 135.235 45.75C135.688 46.0034 136.061 46.3767 136.355 46.87C136.648 47.3634 136.795 47.9634 136.795 48.67C136.795 49.3767 136.648 49.9767 136.355 50.47C136.061 50.9634 135.688 51.3367 135.235 51.59C134.781 51.8434 134.321 51.97 133.855 51.97C133.295 51.97 132.775 51.8434 132.295 51.59C131.815 51.3367 131.428 50.9634 131.135 50.47C130.855 49.9767 130.715 49.3767 130.715 48.67ZM146.497 48.67C146.497 49.59 146.704 50.4167 147.117 51.15C147.544 51.87 148.117 52.4367 148.837 52.85C149.557 53.2634 150.364 53.47 151.257 53.47C152.164 53.47 152.97 53.2634 153.677 52.85C154.397 52.4367 154.964 51.87 155.377 51.15C155.804 50.4167 156.017 49.59 156.017 48.67C156.017 47.7367 155.804 46.91 155.377 46.19C154.964 45.47 154.397 44.9034 153.677 44.49C152.97 44.0767 152.164 43.87 151.257 43.87C150.364 43.87 149.557 44.0767 148.837 44.49C148.117 44.9034 147.544 45.47 147.117 46.19C146.704 46.91 146.497 47.7367 146.497 48.67ZM148.117 48.67C148.117 48.03 148.25 47.4634 148.517 46.97C148.797 46.4634 149.17 46.07 149.637 45.79C150.117 45.51 150.657 45.37 151.257 45.37C151.857 45.37 152.39 45.51 152.857 45.79C153.337 46.07 153.71 46.4634 153.977 46.97C154.257 47.4634 154.397 48.03 154.397 48.67C154.397 49.31 154.257 49.8767 153.977 50.37C153.71 50.8634 153.337 51.2567 152.857 51.55C152.39 51.83 151.857 51.97 151.257 51.97C150.657 51.97 150.117 51.83 149.637 51.55C149.17 51.2567 148.797 50.8634 148.517 50.37C148.25 49.8767 148.117 49.31 148.117 48.67ZM164.115 47.67V53.27H165.715V47.47C165.715 46.3634 165.428 45.49 164.855 44.85C164.295 44.1967 163.528 43.87 162.555 43.87C161.955 43.87 161.421 44.0034 160.955 44.27C160.501 44.5367 160.121 44.95 159.815 45.51V44.07H158.215V53.27H159.815V47.67C159.815 47.2167 159.908 46.8167 160.095 46.47C160.295 46.1234 160.568 45.8567 160.915 45.67C161.275 45.47 161.688 45.37 162.155 45.37C162.795 45.37 163.281 45.5634 163.615 45.95C163.948 46.3367 164.115 46.91 164.115 47.67ZM173.619 53.27H183.499V51.67H177.119L181.579 47.13C182.125 46.57 182.572 45.9367 182.919 45.23C183.265 44.5234 183.439 43.81 183.439 43.09C183.439 42.6634 183.352 42.2167 183.179 41.75C183.005 41.2834 182.739 40.85 182.379 40.45C182.019 40.0367 181.559 39.7034 180.999 39.45C180.439 39.1834 179.772 39.05 178.999 39.05C178.039 39.05 177.212 39.2634 176.519 39.69C175.839 40.1034 175.319 40.69 174.959 41.45C174.599 42.1967 174.419 43.07 174.419 44.07H176.119C176.119 43.3634 176.232 42.7567 176.459 42.25C176.685 41.73 177.012 41.3367 177.439 41.07C177.879 40.79 178.399 40.65 178.999 40.65C179.425 40.65 179.805 40.7234 180.139 40.87C180.472 41.0167 180.752 41.21 180.979 41.45C181.219 41.69 181.399 41.9567 181.519 42.25C181.639 42.5434 181.699 42.8434 181.699 43.15C181.699 43.5234 181.639 43.8834 181.519 44.23C181.412 44.5634 181.245 44.8967 181.019 45.23C180.805 45.55 180.545 45.8767 180.239 46.21L173.619 53.27ZM185.005 50.47H195.665V48.97H192.805H192.465H187.805L191.765 43.05V49.53V49.75V53.27H193.465V39.27H192.765L185.005 50.47ZM206.746 48.67C206.746 47.7367 206.566 46.9167 206.206 46.21C205.846 45.5034 205.346 44.95 204.706 44.55C204.079 44.15 203.366 43.95 202.566 43.95C202.219 43.95 201.866 43.9967 201.506 44.09C201.159 44.17 200.819 44.2967 200.486 44.47L201.426 40.77H206.706V39.27H200.106L198.266 46.73C198.746 46.3967 199.166 46.1434 199.526 45.97C199.899 45.7834 200.266 45.6567 200.626 45.59C200.999 45.51 201.406 45.47 201.846 45.47C202.446 45.47 202.979 45.6034 203.446 45.87C203.926 46.1367 204.299 46.51 204.566 46.99C204.846 47.47 204.986 48.03 204.986 48.67C204.986 49.31 204.859 49.87 204.606 50.35C204.366 50.83 204.012 51.2034 203.546 51.47C203.079 51.7367 202.512 51.87 201.846 51.87C201.339 51.87 200.852 51.7634 200.386 51.55C199.919 51.3234 199.506 51.0367 199.146 50.69C198.799 50.33 198.519 49.95 198.306 49.55L196.866 50.53C197.172 51.0634 197.546 51.5567 197.986 52.01C198.439 52.45 198.979 52.8034 199.606 53.07C200.246 53.3367 200.992 53.47 201.846 53.47C202.526 53.47 203.159 53.37 203.746 53.17C204.332 52.97 204.852 52.67 205.306 52.27C205.759 51.87 206.112 51.37 206.366 50.77C206.619 50.17 206.746 49.47 206.746 48.67ZM207.955 53.27H217.835V51.67H211.455L215.915 47.13C216.461 46.57 216.908 45.9367 217.255 45.23C217.601 44.5234 217.775 43.81 217.775 43.09C217.775 42.6634 217.688 42.2167 217.515 41.75C217.341 41.2834 217.075 40.85 216.715 40.45C216.355 40.0367 215.895 39.7034 215.335 39.45C214.775 39.1834 214.108 39.05 213.335 39.05C212.375 39.05 211.548 39.2634 210.855 39.69C210.175 40.1034 209.655 40.69 209.295 41.45C208.935 42.1967 208.755 43.07 208.755 44.07H210.455C210.455 43.3634 210.568 42.7567 210.795 42.25C211.021 41.73 211.348 41.3367 211.775 41.07C212.215 40.79 212.735 40.65 213.335 40.65C213.761 40.65 214.141 40.7234 214.475 40.87C214.808 41.0167 215.088 41.21 215.315 41.45C215.555 41.69 215.735 41.9567 215.855 42.25C215.975 42.5434 216.035 42.8434 216.035 43.15C216.035 43.5234 215.975 43.8834 215.855 44.23C215.748 44.5634 215.581 44.8967 215.355 45.23C215.141 45.55 214.881 45.8767 214.575 46.21L207.955 53.27ZM220.241 48.97H229.941V47.37H220.241V48.97ZM224.241 43.27V53.07H225.941V43.27H224.241ZM240.342 44.07H238.742V53.27H240.342V44.07ZM243.122 45.83L244.002 44.51C243.762 44.2567 243.495 44.09 243.202 44.01C242.922 43.9167 242.615 43.87 242.282 43.87C241.855 43.87 241.435 44.0367 241.022 44.37C240.609 44.7034 240.269 45.1567 240.002 45.73C239.749 46.29 239.622 46.9367 239.622 47.67H240.342C240.342 47.23 240.382 46.8367 240.462 46.49C240.555 46.1434 240.715 45.87 240.942 45.67C241.169 45.47 241.482 45.37 241.882 45.37C242.149 45.37 242.369 45.41 242.542 45.49C242.715 45.5567 242.909 45.67 243.122 45.83ZM248.865 53.47C249.851 53.47 250.705 53.2767 251.425 52.89C252.158 52.49 252.765 51.9034 253.245 51.13L251.945 50.31C251.611 50.87 251.205 51.29 250.725 51.57C250.245 51.8367 249.691 51.97 249.065 51.97C248.438 51.97 247.905 51.8367 247.465 51.57C247.025 51.3034 246.691 50.9167 246.465 50.41C246.238 49.9034 246.125 49.29 246.125 48.57C246.138 47.8634 246.258 47.27 246.485 46.79C246.725 46.2967 247.058 45.9234 247.485 45.67C247.925 45.4034 248.451 45.27 249.065 45.27C249.585 45.27 250.038 45.3834 250.425 45.61C250.811 45.8367 251.111 46.15 251.325 46.55C251.551 46.95 251.665 47.4234 251.665 47.97C251.665 48.0634 251.645 48.1834 251.605 48.33C251.565 48.4634 251.525 48.5634 251.485 48.63L252.125 47.71H245.525V49.07H253.385C253.385 49.0434 253.385 48.9834 253.385 48.89C253.398 48.7834 253.405 48.6834 253.405 48.59C253.405 47.6167 253.231 46.7767 252.885 46.07C252.538 45.3634 252.038 44.8234 251.385 44.45C250.745 44.0634 249.971 43.87 249.065 43.87C248.158 43.87 247.358 44.07 246.665 44.47C245.985 44.87 245.451 45.43 245.065 46.15C244.691 46.87 244.505 47.71 244.505 48.67C244.505 49.6167 244.685 50.45 245.045 51.17C245.418 51.89 245.931 52.4567 246.585 52.87C247.251 53.27 248.011 53.47 248.865 53.47ZM253.805 44.07L258.205 53.97L262.605 44.07H260.805L258.205 50.57L255.605 44.07H253.805ZM264.113 40.27C264.113 40.5634 264.22 40.8234 264.433 41.05C264.66 41.2634 264.92 41.37 265.213 41.37C265.52 41.37 265.78 41.2634 265.993 41.05C266.207 40.8234 266.313 40.5634 266.313 40.27C266.313 39.9634 266.207 39.7034 265.993 39.49C265.78 39.2767 265.52 39.17 265.213 39.17C264.92 39.17 264.66 39.2767 264.433 39.49C264.22 39.7034 264.113 39.9634 264.113 40.27ZM264.413 44.07V53.27H266.013V44.07H264.413ZM272.869 53.47C273.855 53.47 274.709 53.2767 275.429 52.89C276.162 52.49 276.769 51.9034 277.249 51.13L275.949 50.31C275.615 50.87 275.209 51.29 274.729 51.57C274.249 51.8367 273.695 51.97 273.069 51.97C272.442 51.97 271.909 51.8367 271.469 51.57C271.029 51.3034 270.695 50.9167 270.469 50.41C270.242 49.9034 270.129 49.29 270.129 48.57C270.142 47.8634 270.262 47.27 270.489 46.79C270.729 46.2967 271.062 45.9234 271.489 45.67C271.929 45.4034 272.455 45.27 273.069 45.27C273.589 45.27 274.042 45.3834 274.429 45.61C274.815 45.8367 275.115 46.15 275.329 46.55C275.555 46.95 275.669 47.4234 275.669 47.97C275.669 48.0634 275.649 48.1834 275.609 48.33C275.569 48.4634 275.529 48.5634 275.489 48.63L276.129 47.71H269.529V49.07H277.389C277.389 49.0434 277.389 48.9834 277.389 48.89C277.402 48.7834 277.409 48.6834 277.409 48.59C277.409 47.6167 277.235 46.7767 276.889 46.07C276.542 45.3634 276.042 44.8234 275.389 44.45C274.749 44.0634 273.975 43.87 273.069 43.87C272.162 43.87 271.362 44.07 270.669 44.47C269.989 44.87 269.455 45.43 269.069 46.15C268.695 46.87 268.509 47.71 268.509 48.67C268.509 49.6167 268.689 50.45 269.049 51.17C269.422 51.89 269.935 52.4567 270.589 52.87C271.255 53.27 272.015 53.47 272.869 53.47ZM277.909 44.07L281.909 53.97L284.529 47.27L287.309 53.97L291.309 44.07H289.509L287.189 50.09L284.509 43.37L282.009 50.05L279.709 44.07H277.909ZM293.282 50.45L292.022 51.23C292.196 51.59 292.449 51.9434 292.782 52.29C293.129 52.6367 293.549 52.9234 294.042 53.15C294.536 53.3634 295.089 53.47 295.702 53.47C296.649 53.47 297.409 53.2034 297.982 52.67C298.569 52.1367 298.862 51.47 298.862 50.67C298.862 50.1234 298.729 49.6767 298.462 49.33C298.209 48.9834 297.862 48.69 297.422 48.45C296.982 48.1967 296.496 47.9634 295.962 47.75C295.642 47.6167 295.336 47.4767 295.042 47.33C294.749 47.1834 294.509 47.0167 294.322 46.83C294.136 46.6434 294.042 46.43 294.042 46.19C294.042 45.8834 294.162 45.6567 294.402 45.51C294.642 45.3634 294.929 45.29 295.262 45.29C295.742 45.29 296.169 45.4034 296.542 45.63C296.929 45.8567 297.249 46.1434 297.502 46.49L298.782 45.67C298.596 45.3234 298.336 45.0167 298.002 44.75C297.669 44.4834 297.282 44.27 296.842 44.11C296.416 43.95 295.956 43.87 295.462 43.87C294.969 43.87 294.489 43.9567 294.022 44.13C293.569 44.3034 293.196 44.57 292.902 44.93C292.622 45.29 292.482 45.7434 292.482 46.29C292.482 46.8234 292.616 47.27 292.882 47.63C293.162 47.9767 293.502 48.2634 293.902 48.49C294.316 48.7034 294.722 48.89 295.122 49.05C295.482 49.1834 295.822 49.33 296.142 49.49C296.462 49.6367 296.722 49.8234 296.922 50.05C297.136 50.2634 297.242 50.53 297.242 50.85C297.242 51.21 297.109 51.4967 296.842 51.71C296.589 51.91 296.236 52.01 295.782 52.01C295.409 52.01 295.062 51.9434 294.742 51.81C294.436 51.6634 294.162 51.47 293.922 51.23C293.682 50.99 293.469 50.73 293.282 50.45Z" fill="#64646A"/>
</svg>
